<?xml version="1.0" standalone="no"?><!DOCTYPE svg PUBLIC "-//W3C//DTD SVG 1.1//EN" "http://www.w3.org/Graphics/SVG/1.1/DTD/svg11.dtd"><svg t="1585104199547" class="icon" viewBox="0 0 1024 1024" version="1.1" xmlns="http://www.w3.org/2000/svg" p-id="3962" xmlns:xlink="http://www.w3.org/1999/xlink" width="200" height="200"><defs><style type="text/css"></style></defs><path d="M963.66 256.607c0-0.244 0-0.607-0.126-0.851 0-0.369 0-0.614-0.119-0.978 0-0.369-0.119-0.733-0.119-1.104 0-0.244 0-0.487-0.126-0.725 0-0.369-0.119-0.859-0.244-1.222 0-0.244-0.119-0.369-0.119-0.613-0.126-0.365-0.126-0.852-0.245-1.216 0-0.244-0.126-0.369-0.126-0.613-0.119-0.365-0.244-0.734-0.364-1.222-0.126-0.244-0.126-0.49-0.244-0.609l-0.369-1.095c-0.119-0.245-0.119-0.49-0.244-0.734-0.121-0.369-0.245-0.613-0.365-0.978-0.126-0.244-0.244-0.613-0.369-0.851-0.119-0.244-0.238-0.613-0.364-0.859-0.119-0.364-0.244-0.607-0.364-0.977l-0.371-0.734c-0.119-0.364-0.364-0.725-0.487-0.971-0.119-0.245-0.244-0.371-0.364-0.614-0.244-0.364-0.369-0.733-0.614-1.097-0.119-0.126-0.244-0.369-0.364-0.487l-0.733-1.097c-0.119-0.126-0.244-0.369-0.365-0.487-0.244-0.369-0.487-0.733-0.733-0.978-0.126-0.244-0.244-0.369-0.487-0.613-0.245-0.238-0.49-0.607-0.734-0.851-0.244-0.245-0.487-0.49-0.607-0.734-0.244-0.244-0.369-0.487-0.614-0.733-0.851-0.972-1.829-1.83-2.681-2.682-0.245-0.244-0.49-0.369-0.734-0.614-0.244-0.244-0.487-0.487-0.733-0.607-0.245-0.244-0.614-0.487-0.859-0.733-0.238-0.121-0.364-0.365-0.607-0.49-0.365-0.244-0.734-0.487-0.978-0.733-0.119-0.119-0.364-0.244-0.487-0.365l-1.097-0.733c-0.119-0.119-0.364-0.244-0.487-0.364-0.365-0.244-0.734-0.369-1.097-0.614-0.244-0.119-0.369-0.244-0.613-0.364-0.365-0.126-0.734-0.369-0.972-0.487l-0.734-0.369c-0.369-0.121-0.613-0.245-0.977-0.365-0.244-0.126-0.614-0.244-0.859-0.369-0.244-0.119-0.607-0.238-0.851-0.364-0.365-0.119-0.609-0.244-0.978-0.364-0.244-0.126-0.487-0.126-0.733-0.245l-1.097-0.369c-0.244-0.119-0.487-0.119-0.609-0.244-0.369-0.119-0.733-0.244-1.22-0.364-0.245 0-0.371-0.126-0.614-0.126-0.364-0.119-0.851-0.244-1.216-0.244-0.244 0-0.487-0.121-0.613-0.121-0.364-0.126-0.852-0.126-1.222-0.244-0.244 0-0.482-0.126-0.725-0.126-0.369 0-0.734-0.119-1.104-0.119-0.364 0-0.607 0-0.978-0.126-0.244 0-0.607 0-0.851-0.119h-242.407c-21.604 0-39.062 17.456-39.062 39.062 0 21.604 17.458 39.055 39.062 39.055h146.102l-3.171 3.177-217.27 217.265 0.369 0.369-49.676 49.676-155.87-155.87c-7.694-7.689-17.827-11.472-27.953-11.472-10.13-0.126-20.263 3.659-27.952 11.472l-282.446 282.322c-15.258 15.258-15.258 40.041 0 55.298 15.258 15.258 40.033 15.258 55.291 0l255.108-255.11 155.746 155.751c7.813 7.815 17.945 11.593 28.076 11.474 10.126 0.119 20.382-3.659 28.070-11.474l182.964-182.969c0.734-0.734 1.347-1.342 1.956-2.075l111.564-111.564v146.109c0 21.604 17.451 39.060 39.055 39.060s39.062-17.456 39.062-39.060v-235.085c0-0.244 0.126-0.49 0.126-0.614 0-0.244 0.119-0.487 0.119-0.733 0-0.364 0.119-0.734 0.119-1.097s0-0.607 0.126-0.977c0-0.245 0-0.609 0.119-0.852-0.122-1.466-0.122-2.807-0.122-4.030v0zM963.66 256.607z" p-id="3963" fill="#cdcdcd"></path></svg>