<?xml version="1.0" standalone="no"?><!DOCTYPE svg PUBLIC "-//W3C//DTD SVG 1.1//EN" "http://www.w3.org/Graphics/SVG/1.1/DTD/svg11.dtd"><svg t="1584342505121" class="icon" viewBox="0 0 1024 1024" version="1.1" xmlns="http://www.w3.org/2000/svg" p-id="4869" xmlns:xlink="http://www.w3.org/1999/xlink" width="200" height="200"><defs><style type="text/css"></style></defs><path d="M21.333089 21.344822l426.661778 490.661045L21.333089 1002.666911V21.344822z" fill="#cdcdcd" p-id="4870"></path><path d="M1002.655178 512.005867v490.661044L575.9934 512.005867 1002.655178 21.344822v490.661045z" fill="#cdcdcd" p-id="4871"></path><path d="M938.655911 842.668744L639.992667 512.005867h-63.999267l426.661778 490.661044V512.005867h-63.999267v330.662877z" fill="#cdcdcd" p-id="4872"></path><path d="M575.9934 512.005867h63.999267L938.655911 181.342989V512.005867h63.999267V21.344822L575.9934 512.005867z" fill="#cdcdcd" p-id="4873"></path><path d="M938.655911 181.342989L639.992667 512.005867h298.663244V181.342989z" fill="#cdcdcd" p-id="4874"></path><path d="M938.655911 512.005867H639.992667l298.663244 330.662877V512.005867z" fill="#cdcdcd" p-id="4875"></path><path d="M85.332356 842.668744L383.9956 512.005867h63.999267L21.333089 1002.666911V512.005867h63.999267v330.662877z" fill="#cdcdcd" p-id="4876"></path><path d="M447.994867 512.005867h-63.999267L85.332356 181.342989V512.005867H21.333089V21.344822l426.661778 490.661045z" fill="#cdcdcd" p-id="4877"></path><path d="M85.332356 181.342989L383.9956 512.005867H85.332356V181.342989z" fill="#cdcdcd" p-id="4878"></path><path d="M85.332356 512.005867h298.663244L85.332356 842.668744V512.005867z" fill="#cdcdcd" p-id="4879"></path><path d="M37.439571 7.350316A21.333089 21.333089 0 0 0 0 21.344822v149.331622h42.666178V78.389502L419.728524 512.005867l-43.476835 50.00476 32.191631 27.989013 55.658029-63.999267a21.333089 21.333089 0 0 0 0-27.989013zM42.666178 945.622231V298.674978H0v703.991933a21.333089 21.333089 0 0 0 13.845175 19.989104A21.845083 21.845083 0 0 0 21.333089 1024a21.333089 21.333089 0 0 0 16.106482-7.338583l333.884174-383.9956-32.127632-27.989012z" p-id="4880" fill="#cdcdcd"></path><path d="M0 213.342622h42.666178v42.644845H0zM981.322089 945.622231L604.259743 512.005867l62.015289-71.316517-32.191631-28.010345-74.196483 85.332355a21.333089 21.333089 0 0 0 0 27.989013l426.661778 490.661044A21.333089 21.333089 0 0 0 1002.655178 1024a21.845083 21.845083 0 0 0 7.487914-1.343985A21.333089 21.333089 0 0 0 1023.988267 1002.666911v-191.9978h-42.666178z" p-id="4881" fill="#cdcdcd"></path><path d="M1010.143092 1.355718a21.333089 21.333089 0 0 0-23.594396 5.994598l-315.34572 362.662511 32.212964 27.989013L981.322089 78.389502V768.002933h42.666178V21.344822a21.333089 21.333089 0 0 0-13.845175-19.989104zM490.661045 661.337489h42.666177v42.666178h-42.666177zM490.661045 746.669844h42.666177v42.666178h-42.666177zM490.661045 832.0022h42.666177v42.666178h-42.666177zM490.661045 917.334556h42.666177v42.666177h-42.666177zM490.661045 149.343355h42.666177v42.666178h-42.666177zM490.661045 234.675711h42.666177v42.666178h-42.666177zM490.661045 64.011h42.666177v42.666178h-42.666177zM490.661045 320.008067h42.666177v42.666177h-42.666177zM490.661045 405.340422h42.666177v42.666178h-42.666177zM490.661045 576.005133h42.666177v42.666178h-42.666177zM490.661045 490.672778h42.666177v42.666177h-42.666177z" p-id="4882" fill="#cdcdcd"></path><path d="M511.994133 42.677911c80.681742 0 163.091465 33.834279 220.605473 63.999267H703.991933v42.666177h106.665445a21.333089 21.333089 0 0 0 21.333089-21.333088V21.344822h-42.666178v68.031221C727.309 52.384466 620.387558 0.011733 511.994133 0.011733A613.262306 613.262306 0 0 0 201.469691 88.949381l23.722395 35.455594A575.332074 575.332074 0 0 1 511.994133 42.677911z" p-id="4883" fill="#cdcdcd"></path></svg>