<?xml version="1.0" standalone="no"?><!DOCTYPE svg PUBLIC "-//W3C//DTD SVG 1.1//EN" "http://www.w3.org/Graphics/SVG/1.1/DTD/svg11.dtd"><svg t="1583918132697" class="icon" viewBox="0 0 1024 1024" version="1.1" xmlns="http://www.w3.org/2000/svg" p-id="4468" xmlns:xlink="http://www.w3.org/1999/xlink" width="200" height="200"><defs><style type="text/css"></style></defs><path d="M733.397 928.471l114.925-145.925H733.397v145.925z m6 0" p-id="4469" fill="#cdcdcd"></path><path d="M781.211 98.623H196.236c-37.245 0-67.46 30.154-67.539 67.399v695.05c0.078 37.245 30.294 67.399 67.539 67.399h472.216V738.065a22.455 22.455 0 0 1 6.581-15.882 22.458 22.458 0 0 1 15.882-6.581h157.406v-549.58c-0.078-37.079-30.03-67.163-67.11-67.399zM227.387 639.965h122.332c20.48 0 34.133 13.656 34.133 34.133 0 20.48-13.653 34.137-34.133 34.137H227.387c-20.481 0-34.133-13.657-34.133-34.137 0-20.477 13.652-34.133 34.133-34.133z m250.332 191.756H227.387c-20.481 0-34.133-13.657-34.133-34.137 0-20.477 13.652-34.133 34.133-34.133h250.332c20.48 0 34.133 13.656 34.133 34.133 0 20.48-13.653 34.137-34.133 34.137z m3.71-255.821L324.167 401.614h102.399s21.175-158.734 140.64-199.695c17.067-6.825 37.547-10.239 58.028-10.239-37.547 17.067-61.442 58.028-71.68 81.918-7.557 16.422-15.723 25.614-15.723 128.016h102.403L481.429 575.9z" p-id="4470" fill="#cdcdcd"></path></svg>