<?xml version="1.0" standalone="no"?><!DOCTYPE svg PUBLIC "-//W3C//DTD SVG 1.1//EN" "http://www.w3.org/Graphics/SVG/1.1/DTD/svg11.dtd"><svg t="1584017403923" class="icon" viewBox="0 0 1024 1024" version="1.1" xmlns="http://www.w3.org/2000/svg" p-id="1215" xmlns:xlink="http://www.w3.org/1999/xlink" width="200" height="200"><defs><style type="text/css"></style></defs><path d="M912 274.5v475.1c0 17.2-6.2 31.9-18.3 44.1-12.2 12.2-26.9 18.3-44.1 18.3H711.9v-37.5c0-3.6-1.2-6.7-3.5-9s-5.3-3.5-9-3.5h-25c-3.6 0-6.7 1.2-9 3.5-2.4 2.4-3.5 5.3-3.5 9V812h-300v-37.5c0-3.6-1.2-6.7-3.5-9-2.4-2.4-5.3-3.5-9-3.5h-25c-3.6 0-6.7 1.2-9 3.5-2.4 2.4-3.5 5.3-3.5 9V812H174.4c-17.2 0-31.9-6.2-44.1-18.3-12.2-12.2-18.3-26.9-18.3-44.1V274.5c0-17.2 6.1-31.9 18.3-44.1s26.9-18.3 44.1-18.3h675c17.2 0 31.9 6.2 44.1 18.3s18.5 26.8 18.5 44.1zM497.5 645.3c9.6-11.1 14.5-24.9 14.5-41.6s-1.2-32-3.5-45.9-6.2-27.4-11.5-40.3c-5.3-12.9-13.2-23.1-23.7-30.5s-23.1-11.2-37.9-11.2c-1.6 1.1-5.5 3.4-11.7 7.1-6.2 3.6-11.2 6.4-14.6 8.4-3.5 2-8.1 4.3-13.9 6.8-5.8 2.6-11.3 4.5-16.8 5.7-5.5 1.2-10.9 1.7-16.4 1.7s-10.9-0.6-16.4-1.7c-5.5-1.2-11.1-3-16.8-5.7-5.8-2.6-10.4-4.8-13.9-6.8s-8.4-4.8-14.6-8.4c-6.2-3.6-10.2-6-11.7-7.1-14.9 0-27.4 3.7-37.9 11.2-10.4 7.4-18.3 17.6-23.7 30.5-5.3 12.9-9.2 26.3-11.5 40.3-2.4 14-3.5 29.2-3.5 45.9s4.8 30.6 14.5 41.6c9.6 11.1 21.5 16.6 35.6 16.6h200c14 0 25.8-5.5 35.4-16.6z m-72.9-182c17.3-17.3 26-38.2 26-62.7s-8.6-45.4-26-62.7c-17.3-17.3-38.2-26-62.7-26s-45.4 8.6-62.7 26-26 38.2-26 62.7 8.6 45.4 26 62.7c17.3 17.3 38.2 26 62.7 26s45.4-8.7 62.7-26zM812 399.4v-25c0-3.6-1.2-6.7-3.5-9-2.4-2.4-5.3-3.5-9-3.5h-225c-3.6 0-6.7 1.2-9 3.5-2.4 2.4-3.5 5.3-3.5 9v25c0 3.6 1.2 6.7 3.5 9 2.4 2.4 5.3 3.5 9 3.5h225c3.6 0 6.7-1.2 9-3.5s3.5-5.3 3.5-9z m0 98.5V476c0-3.9-1.4-7.2-4.1-9.9s-6.1-4.1-9.9-4.1H576c-3.9 0-7.2 1.4-9.9 4.1s-4.1 6.1-4.1 9.9v21.9c0 3.9 1.4 7.2 4.1 9.9 2.7 2.7 6.1 4.1 9.9 4.1h221.8c3.9 0 7.2-1.4 9.9-4.1 2.8-2.7 4.3-6 4.3-9.9z m0 101.5v-25c0-3.6-1.2-6.7-3.5-9-2.4-2.4-5.3-3.5-9-3.5h-225c-3.6 0-6.7 1.2-9 3.5-2.3 2.4-3.5 5.3-3.5 9v25c0 3.6 1.2 6.7 3.5 9s5.3 3.5 9 3.5h225c3.6 0 6.7-1.2 9-3.5s3.5-5.3 3.5-9z" p-id="1216" fill="#cdcdcd"></path></svg>