<?xml version="1.0" standalone="no"?><!DOCTYPE svg PUBLIC "-//W3C//DTD SVG 1.1//EN" "http://www.w3.org/Graphics/SVG/1.1/DTD/svg11.dtd"><svg t="1584500175587" class="icon" viewBox="0 0 1024 1024" version="1.1" xmlns="http://www.w3.org/2000/svg" p-id="1432" xmlns:xlink="http://www.w3.org/1999/xlink" width="200" height="200"><defs><style type="text/css"></style></defs><path d="M384.058 320.126l320.079 191.771-320.079 191.77z" fill="#cdcdcd" p-id="1433"></path><path d="M511.08 83.781c60.907 0 119.782 13.195 174.092 38.065l-40.098 70.047 203.024-1.017L746.081 15.767l-35.529 61.925c-61.925-29.44-129.938-44.668-199.472-44.668-257.334 0-466.956 209.621-466.956 466.956 0 93.392 27.407 183.739 79.689 261.395l42.127-28.423c-46.697-69.03-71.058-149.222-71.058-232.972C94.881 270.564 281.66 83.781 511.08 83.781z m425.337 223.833l-46.187 20.808c24.362 53.802 37.048 111.666 37.048 171.557 0 229.418-186.779 416.199-416.198 416.199-46.697 0-92.376-7.61-136.026-22.838l34.009-65.985-202.521 10.151 110.145 170.545 35.529-69.031c50.752 18.782 104.554 27.916 159.372 27.916 257.334 0 466.956-209.622 466.956-466.956-0.509-66.999-14.721-131.967-42.127-192.366z m0 0" fill="#cdcdcd" p-id="1434"></path><path d="M317.448 1023.559L192.706 830.414l229.452-11.5-36.048 69.941c40.071 12.975 82.066 19.548 124.969 19.548 225.206 0 408.424-183.218 408.424-408.424 0-58.433-12.232-115.074-36.357-168.35l-3.213-7.096 60.359-27.193 3.204 7.061c27.896 61.478 42.303 127.26 42.82 195.519 0 261.826-212.963 474.789-474.73 474.789-54.226 0-106.529-8.762-155.587-26.057l-38.551 74.907z m-97.073-178.962l95.549 147.945 32.53-63.204 6.459 2.39c49.189 18.203 101.901 27.433 156.674 27.433 253.193 0 459.181-205.988 459.181-459.181-0.48-63.394-13.357-124.624-38.285-182.066l-32.022 14.426c22.957 53.219 34.591 109.579 34.591 167.639 0 233.78-190.193 423.973-423.973 423.973-47.695 0-94.322-7.83-138.587-23.272l-8.45-2.948 31.922-61.937-175.589 8.802z m-98.665-72.426l-4.346-6.456c-53-78.722-81.015-170.612-81.015-265.737 0-261.767 212.963-474.73 474.73-474.73 68.742 0 134.74 14.254 196.283 42.379L746.03 0.234l115.557 198.348-229.959 1.152 42.526-74.29c-51.849-22.492-106.668-33.889-163.074-33.889-225.206 0-408.424 183.219-408.424 408.424 0 82.132 24.11 161.187 69.723 228.616l4.362 6.447-55.031 37.129zM511.08 40.798c-253.193 0-459.181 205.988-459.181 459.181 0 89.419 25.584 175.874 74.072 250.561l29.229-19.72c-44.575-68.572-68.092-148.208-68.092-230.841C87.107 266.2 277.3 76.006 511.08 76.006c61.487 0 121.149 13.044 177.329 38.77l7.74 3.544-37.627 65.731 176.09-0.882-88.48-151.87-32.419 56.504-6.5-3.09C645.92 55.573 579.931 40.798 511.08 40.798z" fill="#cdcdcd" p-id="1435"></path></svg>